<svg width="17" height="19" viewBox="0 0 17 19" fill="none" xmlns="http://www.w3.org/2000/svg">
<g id="recycle-bin-2--remove-delete-empty-bin-trash-garbage">
<path id="Vector" d="M1 4.85693H16.4286" stroke="black" stroke-linecap="round" stroke-linejoin="round"/>
<path id="Vector_2" d="M2.92871 4.85693H14.5001V16.4284C14.5001 16.7693 14.3646 17.0964 14.1236 17.3375C13.8825 17.5786 13.5554 17.7141 13.2144 17.7141H4.21443C3.87343 17.7141 3.54641 17.5786 3.30528 17.3375C3.06417 17.0964 2.92871 16.7693 2.92871 16.4284V4.85693Z" stroke="black" stroke-linecap="round" stroke-linejoin="round"/>
<path id="Vector_3" d="M5.5 4.85714V4.21429C5.5 3.36181 5.83864 2.54423 6.44144 1.94144C7.04423 1.33865 7.86181 1 8.71429 1C9.56677 1 10.3843 1.33865 10.9871 1.94144C11.5899 2.54423 11.9286 3.36181 11.9286 4.21429V4.85714" stroke="black" stroke-linecap="round" stroke-linejoin="round"/>
<path id="Vector_4" d="M6.78613 8.71631V13.8611" stroke="black" stroke-linecap="round" stroke-linejoin="round"/>
<path id="Vector_5" d="M10.6426 8.71631V13.8611" stroke="black" stroke-linecap="round" stroke-linejoin="round"/>
</g>
</svg>
