<svg width="22" height="25" viewBox="0 0 22 25" fill="none" xmlns="http://www.w3.org/2000/svg">
<path d="M21 22.2308C21 22.7 20.8084 23.1501 20.4675 23.4818C20.1264 23.8135 19.664 24 19.1818 24H2.81817C2.33596 24 1.87351 23.8135 1.53252 23.4818C1.19156 23.1501 1 22.7 1 22.2308V2.76923C1 2.3 1.19156 1.84999 1.53252 1.5182C1.87351 1.1864 2.33596 1 2.81817 1H12.9741C13.4563 1 13.9188 1.1864 14.2597 1.5182L20.4675 7.55873C20.8084 7.89052 21 8.34054 21 8.80976V22.2308Z" stroke="black" stroke-opacity="0.6" stroke-width="2" stroke-linecap="round" stroke-linejoin="round"/>
<path d="M12.0156 11.3949H16.5611" stroke="black" stroke-opacity="0.6" stroke-width="2" stroke-linecap="round" stroke-linejoin="round"/>
<path d="M12.0156 17.5312H16.5611" stroke="black" stroke-opacity="0.6" stroke-width="2" stroke-linecap="round" stroke-linejoin="round"/>
<path d="M4.98438 17.4307L6.5078 18.9131L9.04685 15.4541" stroke="black" stroke-opacity="0.6" stroke-width="2" stroke-linecap="round" stroke-linejoin="round"/>
<path d="M4.98438 11.1829L6.5078 12.6653L9.04685 9.2063" stroke="black" stroke-opacity="0.6" stroke-width="2" stroke-linecap="round" stroke-linejoin="round"/>
</svg>
