<svg width="17" height="17" viewBox="0 0 17 17" fill="none" xmlns="http://www.w3.org/2000/svg">
<path d="M15.9995 4.96728C15.9541 4.30867 15.7086 3.70694 15.3223 3.21094" stroke="black" stroke-opacity="0.5" stroke-width="1.3" stroke-linecap="round" stroke-linejoin="round"/>
<path d="M4.05664 2.20318C4.44672 1.6541 4.97979 1.24821 5.57854 1" stroke="black" stroke-opacity="0.5" stroke-width="1.3" stroke-linecap="round" stroke-linejoin="round"/>
<path d="M3.74877 14.3693L3.31971 13.9111C2.72425 13.275 2.25692 12.5425 1.94049 11.7496L1.08784 9.6128C0.876715 9.08371 1.05493 8.48719 1.52834 8.13834C2.2384 7.61509 3.28353 7.86165 3.64577 8.63785L4.36587 10.1809C4.90548 10.3167 6.14273 10.8451 6.77478 11.8728" stroke="black" stroke-opacity="0.5" stroke-width="1.3" stroke-linecap="round" stroke-linejoin="round"/>
<path d="M4.36719 10.1826L6.17457 3.85029C6.37421 3.15084 7.14004 2.73576 7.88508 2.92317C8.63014 3.11059 9.07229 3.82953 8.87265 4.52897L7.78823 8.32835L9.30643 3.00922C9.50606 2.30978 10.2719 1.89469 11.017 2.08211C11.762 2.26953 12.2041 2.98847 12.0045 3.68792L10.3417 9.51363L11.2816 6.22083C11.4812 5.52139 12.247 5.10631 12.9921 5.29373C13.7372 5.48113 14.1793 6.20008 13.9797 6.89952L11.8599 14.3262C11.6896 14.9229 11.2738 15.4316 10.7039 15.7406L10.2255 15.9998" stroke="black" stroke-opacity="0.5" stroke-width="1.3" stroke-linecap="round" stroke-linejoin="round"/>
</svg>
