<svg width="17" height="17" viewBox="0 0 17 17" fill="none" xmlns="http://www.w3.org/2000/svg">
<path d="M8.49985 9.654C10.093 9.654 11.3845 8.36251 11.3845 6.76938C11.3845 5.17625 10.093 3.88477 8.49985 3.88477C6.90672 3.88477 5.61523 5.17625 5.61523 6.76938C5.61523 8.36251 6.90672 9.654 8.49985 9.654Z" stroke="black" stroke-opacity="0.5" stroke-width="1.3" stroke-linecap="round" stroke-linejoin="round"/>
<path d="M3.57227 14.1534C4.08716 13.3082 4.81082 12.6097 5.67366 12.1251C6.53651 11.6403 7.50952 11.3857 8.49919 11.3857C9.48885 11.3857 10.4619 11.6403 11.3247 12.1251C12.1876 12.6097 12.9112 13.3082 13.4261 14.1534" stroke="black" stroke-opacity="0.5" stroke-width="1.3" stroke-linecap="round" stroke-linejoin="round"/>
<path d="M8.5 16C12.6422 16 16 12.6422 16 8.5C16 4.35787 12.6422 1 8.5 1C4.35787 1 1 4.35787 1 8.5C1 12.6422 4.35787 16 8.5 16Z" stroke="black" stroke-opacity="0.5" stroke-width="1.3" stroke-linecap="round" stroke-linejoin="round"/>
</svg>
