<svg width="13" height="14" viewBox="0 0 13 14" fill="none" xmlns="http://www.w3.org/2000/svg">
<path d="M12.0347 2.77664L9.89402 0.478973C9.62177 0.182947 9.25335 0.0115003 8.86595 0.000557797C8.47856 -0.0103847 8.10224 0.140026 7.81587 0.420274L6.25335 2.0974L5.24553 1.05758C5.09842 0.899677 4.89889 0.810968 4.69084 0.810968C4.48279 0.810968 4.28326 0.899677 4.13614 1.05758C3.98903 1.21549 3.90638 1.42965 3.90638 1.65296C3.90638 1.87627 3.98903 2.09044 4.13614 2.24834L5.1049 3.33009L0.784542 7.96734C0.532013 8.24068 0.374776 8.59895 0.339225 8.982L0.00328359 12.4788C-0.00724077 12.6016 0.00760734 12.7254 0.0467694 12.8414C0.0859314 12.9573 0.148443 13.0626 0.229849 13.1497C0.302849 13.2274 0.389426 13.2889 0.484612 13.3306C0.579799 13.3723 0.681723 13.3935 0.784542 13.3928H0.854856L4.1127 13.0742C4.46958 13.036 4.80336 12.8673 5.05803 12.5962L9.41745 7.91703L10.3862 8.95685C10.4588 9.03544 10.5452 9.09783 10.6405 9.1404C10.7357 9.18297 10.8378 9.20489 10.9409 9.20489C11.044 9.20489 11.1462 9.18297 11.2414 9.1404C11.3366 9.09783 11.423 9.03544 11.4956 8.95685C11.5688 8.87889 11.6269 8.78614 11.6666 8.68396C11.7063 8.58177 11.7267 8.47217 11.7267 8.36147C11.7267 8.25076 11.7063 8.14116 11.6666 8.03897C11.6269 7.93679 11.5688 7.84404 11.4956 7.76609L10.5268 6.72627L12.0894 5.04914C12.3623 4.73968 12.5098 4.32673 12.4995 3.90076C12.4892 3.47479 12.3221 3.07056 12.0347 2.77664ZM3.97208 11.3971L1.6283 11.6319L1.83924 9.11617L6.25335 4.47053L8.35494 6.73465L3.97208 11.3971ZM9.44089 5.52712L7.31586 3.33009L8.80807 1.65296L10.9409 3.94224L9.44089 5.52712Z" fill="white"/>
</svg>
