<svg width="17" height="17" viewBox="0 0 17 17" fill="none" xmlns="http://www.w3.org/2000/svg">
<path d="M8.5 1V2.15385" stroke="black" stroke-opacity="0.5" stroke-width="1.3" stroke-linecap="round" stroke-linejoin="round"/>
<path d="M11.9609 2.15309L12.5379 1.57617" stroke="black" stroke-opacity="0.5" stroke-width="1.3" stroke-linecap="round" stroke-linejoin="round"/>
<path d="M5.03786 2.15309L4.46094 1.57617" stroke="black" stroke-opacity="0.5" stroke-width="1.3" stroke-linecap="round" stroke-linejoin="round"/>
<path d="M16.0005 15.9999H13.2923C10.9052 15.9999 8.91202 14.1797 8.6959 11.8024L8.56309 10.3414C8.52492 9.92158 8.73235 9.51744 9.09568 9.3037C9.75445 8.91619 10.5971 9.30976 10.7227 10.0636L11.039 11.9615" stroke="black" stroke-opacity="0.5" stroke-width="1.3" stroke-linecap="round" stroke-linejoin="round"/>
<path d="M15.9984 11.9579H14.124C13.5457 11.9579 13.0567 11.5298 12.9804 10.9566L12.2549 5.51562C12.1229 4.52558 10.9742 4.04346 10.1751 4.64275C9.84604 4.88958 9.65234 5.27697 9.65234 5.68836V9.07331" stroke="black" stroke-opacity="0.5" stroke-width="1.3" stroke-linecap="round" stroke-linejoin="round"/>
<path d="M1 15.9999H3.70822C6.09528 15.9999 8.08849 14.1797 8.3046 11.8024L8.43742 10.3414C8.47559 9.92158 8.26815 9.51744 7.90481 9.3037C7.24605 8.91619 6.40344 9.30976 6.27779 10.0636L5.96149 11.9615" stroke="black" stroke-opacity="0.5" stroke-width="1.3" stroke-linecap="round" stroke-linejoin="round"/>
<path d="M1 11.9579H2.87438C3.45269 11.9579 3.94167 11.5298 4.0181 10.9566L4.74355 5.51562C4.87556 4.52558 6.02425 4.04346 6.82329 4.64275C7.1524 4.88958 7.3461 5.27697 7.3461 5.68836V9.07331" stroke="black" stroke-opacity="0.5" stroke-width="1.3" stroke-linecap="round" stroke-linejoin="round"/>
</svg>
