<svg width="23" height="23" viewBox="0 0 23 23" fill="none" xmlns="http://www.w3.org/2000/svg">
<path d="M8.21261 10.6785C10.4809 10.6785 12.3198 8.83969 12.3198 6.57138C12.3198 4.30307 10.4809 2.46423 8.21261 2.46423C5.9443 2.46423 4.10547 4.30307 4.10547 6.57138C4.10547 8.83969 5.9443 10.6785 8.21261 10.6785Z" stroke="#32A9EB" stroke-width="1.5" stroke-linecap="round" stroke-linejoin="round"/>
<path d="M0.820312 22.1786H8.21317H15.606V21.288C15.5929 20.0358 15.2627 18.8072 14.6462 17.7174C14.0296 16.6273 13.1468 15.7114 12.0803 15.0551C11.0138 14.3988 9.79838 14.0235 8.54752 13.9643C8.43601 13.959 8.32452 13.9563 8.21317 13.9561C8.10182 13.9563 7.99033 13.959 7.87882 13.9643C6.62796 14.0235 5.41251 14.3988 4.346 15.0551C3.27951 15.7114 2.39675 16.6273 1.78018 17.7174C1.16363 18.8072 0.833391 20.0358 0.820312 21.288V22.1786Z" stroke="#32A9EB" stroke-width="1.5" stroke-linecap="round" stroke-linejoin="round"/>
<path d="M14.7852 10.6785C17.0534 10.6785 18.8923 8.83969 18.8923 6.57138C18.8923 4.30307 17.0534 2.46423 14.7852 2.46423" stroke="#32A9EB" stroke-width="1.5" stroke-linecap="round" stroke-linejoin="round"/>
<path d="M18.8901 22.1787H22.1758V21.288C22.1626 20.0358 21.8324 18.8073 21.2159 17.7174C20.5993 16.6273 19.7166 15.7115 18.65 15.0552C17.9607 14.6309 17.2089 14.3241 16.4258 14.1442" stroke="#32A9EB" stroke-width="1.5" stroke-linecap="round" stroke-linejoin="round"/>
</svg>
