<svg width="25" height="25" viewBox="0 0 25 25" fill="none" xmlns="http://www.w3.org/2000/svg">
<path d="M12.5 1V2.76923" stroke="#3510C9" stroke-width="1.5" stroke-linecap="round" stroke-linejoin="round"/>
<path d="M17.8086 2.76913L18.6932 1.88452" stroke="#3510C9" stroke-width="1.5" stroke-linecap="round" stroke-linejoin="round"/>
<path d="M7.1932 2.76913L6.30859 1.88452" stroke="#3510C9" stroke-width="1.5" stroke-linecap="round" stroke-linejoin="round"/>
<path d="M24.0008 24H19.8482C16.188 24 13.1318 21.209 12.8004 17.5638L12.5967 15.3236C12.5382 14.6799 12.8563 14.0602 13.4134 13.7324C14.4235 13.1383 15.7155 13.7417 15.9082 14.8977L16.3931 17.8077" stroke="#3510C9" stroke-width="1.5" stroke-linecap="round" stroke-linejoin="round"/>
<path d="M24.0002 17.8016H21.1261C20.2394 17.8016 19.4896 17.1452 19.3725 16.2663L18.2602 7.92347C18.0578 6.4054 16.2963 5.66617 15.0712 6.58507C14.5665 6.96354 14.2695 7.55754 14.2695 8.18834V13.3786" stroke="#3510C9" stroke-width="1.5" stroke-linecap="round" stroke-linejoin="round"/>
<path d="M1 24H5.1526C8.81276 24 11.869 21.209 12.2004 17.5638L12.404 15.3236C12.4626 14.6799 12.1445 14.0602 11.5874 13.7324C10.5773 13.1383 9.28527 13.7417 9.09262 14.8977L8.60762 17.8077" stroke="#3510C9" stroke-width="1.5" stroke-linecap="round" stroke-linejoin="round"/>
<path d="M1 17.8007H3.87406C4.76079 17.8007 5.51056 17.1442 5.62775 16.2653L6.74011 7.92249C6.94253 6.40443 8.70385 5.66519 9.92905 6.58409C10.4337 6.96256 10.7307 7.55656 10.7307 8.18736V13.3776" stroke="#3510C9" stroke-width="1.5" stroke-linecap="round" stroke-linejoin="round"/>
</svg>
