<svg width="17" height="17" viewBox="0 0 17 17" fill="none" xmlns="http://www.w3.org/2000/svg">
<path d="M6.2756 3.01923L6.81599 1.73846C6.90713 1.52161 7.06747 1.33509 7.27601 1.20332C7.48456 1.07155 7.73158 1.00069 7.98473 1H9.01524C9.26839 1.00069 9.51542 1.07155 9.72396 1.20332C9.93251 1.33509 10.0928 1.52161 10.184 1.73846L10.7244 3.01923L12.5591 3.98846L14.042 3.78077C14.289 3.75 14.5403 3.78731 14.7641 3.88798C14.9878 3.98866 15.174 4.14813 15.2988 4.34615L15.8014 5.15385C15.9303 5.35502 15.9897 5.58732 15.9717 5.8201C15.9538 6.05288 15.8594 6.27519 15.7009 6.45769L14.7835 7.53077V9.46923L15.726 10.5423C15.8845 10.7248 15.9789 10.9471 15.9969 11.1799C16.0148 11.4127 15.9554 11.645 15.8266 11.8462L15.3239 12.6538C15.1991 12.8518 15.013 13.0113 14.7893 13.112C14.5655 13.2127 14.3141 13.25 14.0672 13.2192L12.5843 13.0115L10.7495 13.9808L10.2091 15.2615C10.118 15.4783 9.95765 15.6649 9.7491 15.7967C9.54056 15.9285 9.29352 15.9993 9.04037 16H7.98473C7.73158 15.9993 7.48456 15.9285 7.27601 15.7967C7.06747 15.6649 6.90713 15.4783 6.81599 15.2615L6.2756 13.9808L4.4408 13.0115L2.95788 13.2192C2.71096 13.25 2.45964 13.2127 2.23587 13.112C2.01212 13.0113 1.826 12.8518 1.70117 12.6538L1.19848 11.8462C1.06967 11.645 1.01033 11.4127 1.02827 11.1799C1.04622 10.9471 1.14062 10.7248 1.29902 10.5423L2.21642 9.46923V7.53077L1.27388 6.45769C1.11549 6.27519 1.02108 6.05288 1.00314 5.8201C0.985192 5.58732 1.04453 5.35502 1.17335 5.15385L1.67603 4.34615C1.80086 4.14813 1.98698 3.98866 2.21074 3.88798C2.43451 3.78731 2.68583 3.75 2.93275 3.78077L4.41567 3.98846L6.2756 3.01923ZM5.98656 8.5C5.98656 8.95642 6.13397 9.40258 6.41015 9.78208C6.68633 10.1616 7.07887 10.4574 7.53814 10.632C7.99741 10.8067 8.50278 10.8524 8.99033 10.7633C9.47788 10.6743 9.92574 10.4545 10.2773 10.1318C10.6288 9.80905 10.8681 9.39785 10.9651 8.95021C11.0621 8.50256 11.0123 8.03857 10.8221 7.61688C10.6319 7.19521 10.3097 6.83479 9.89637 6.58122C9.48304 6.32765 8.99709 6.19231 8.49999 6.19231C7.83339 6.19231 7.19408 6.43543 6.72273 6.86822C6.25137 7.30099 5.98656 7.88797 5.98656 8.5Z" stroke="black" stroke-opacity="0.5" stroke-width="1.3" stroke-linecap="round" stroke-linejoin="round"/>
</svg>
