<svg width="24" height="24" viewBox="0 0 24 24" fill="none" xmlns="http://www.w3.org/2000/svg">
<path d="M23.334 15.745L21.024 13.6334V8.43004C21.0547 6.49783 20.3154 4.62077 18.9426 3.14543C17.5698 1.6701 15.6561 0.69613 13.555 0.403373C12.3356 0.257384 11.096 0.34949 9.91881 0.673544C8.74167 0.997598 7.65407 1.54615 6.7286 2.28259C5.80313 3.01904 5.06107 3.92645 4.55192 4.94427C4.04277 5.96209 3.77825 7.06692 3.776 8.18504V13.6334L1.466 15.745C1.17585 16.0132 0.979086 16.3532 0.900311 16.7225C0.821536 17.0918 0.864244 17.4739 1.0231 17.8213C1.18195 18.1686 1.4499 18.4657 1.79345 18.6753C2.137 18.885 2.5409 18.9979 2.95467 19H7.26667V19.3967C7.32661 20.5811 7.90058 21.6956 8.86279 22.496C9.82499 23.2964 11.097 23.7174 12.4 23.6667C13.703 23.7174 14.975 23.2964 15.9372 22.496C16.8994 21.6956 17.4734 20.5811 17.5333 19.3967V19H21.8453C22.2591 18.9979 22.663 18.885 23.0066 18.6753C23.3501 18.4657 23.6181 18.1686 23.7769 17.8213C23.9358 17.4739 23.9785 17.0918 23.8997 16.7225C23.8209 16.3532 23.6242 16.0132 23.334 15.745ZM14.9667 19.3967C14.8955 19.9579 14.5889 20.4724 14.1108 20.8332C13.6326 21.194 13.0198 21.3731 12.4 21.3334C11.7802 21.3731 11.1674 21.194 10.6892 20.8332C10.2111 20.4724 9.90451 19.9579 9.83334 19.3967V19H14.9667V19.3967Z" fill="#707070"/>
</svg>
