<svg width="78" height="32" viewBox="0 0 78 32" fill="none" xmlns="http://www.w3.org/2000/svg">
<rect y="4" width="72" height="24" rx="3" fill="black" fill-opacity="0.66"/>
<path d="M20.076 15.684H18.789V10.25H20.076V15.684ZM13.628 13.656C13.2293 14.176 12.718 14.605 12.094 14.943C11.47 15.2723 10.768 15.4803 9.988 15.567V14.501C10.8893 14.3883 11.6173 14.072 12.172 13.552C12.7353 13.032 13.0647 12.382 13.16 11.602H10.131V10.536H17.32V11.602H14.434C14.3993 12.0007 14.3083 12.382 14.161 12.746L17.684 14.501L17.112 15.437L13.628 13.656ZM20.349 20.195V21.209H10.677V18.271H18.802V17.309H10.651V16.295H20.076V19.233H11.951V20.195H20.349ZM32.5029 14.826H23.0129V10.38H32.5029V14.826ZM31.2159 11.446H24.2999V13.76H31.2159V11.446ZM33.3089 15.944V17.036H28.4079V18.947H27.1079V17.036H22.2199V15.944H33.3089ZM24.2999 20.117H32.7499V21.222H22.9999V17.985H24.2999V20.117ZM43.6073 14.358C43.0873 14.9387 42.4027 15.4023 41.5533 15.749C40.7127 16.0957 39.768 16.2993 38.7193 16.36V15.177C39.8807 15.0903 40.86 14.8 41.6573 14.306C42.4633 13.8033 42.979 13.1707 43.2043 12.408H39.0053V11.238H43.2173V9.977H44.5433V11.238H48.8073V12.408H44.5953C44.5347 12.7113 44.4263 13.0363 44.2703 13.383L49.1063 15.164L48.6643 16.282L43.6073 14.358ZM49.4573 18.622H44.5563V21.612H43.2433V18.622H38.3683V17.426H49.4573V18.622ZM62.4822 15.983H60.9222V21.352H59.6352V10.25H60.9222V14.748H62.4822V15.983ZM51.2762 10.653H57.3212V13.331C57.3212 14.7957 57.0785 16.0827 56.5932 17.192C56.1079 18.2927 55.4102 19.1463 54.5002 19.753C53.5902 20.3597 52.5155 20.663 51.2762 20.663V19.441C52.2729 19.441 53.1222 19.194 53.8242 18.7C54.5349 18.1973 55.0765 17.491 55.4492 16.581C55.8219 15.671 56.0082 14.5963 56.0082 13.357V11.836H51.2762V10.653Z" fill="white"/>
</svg>
