<svg width="15" height="15" viewBox="0 0 15 15" fill="none" xmlns="http://www.w3.org/2000/svg">
<path d="M2 2.5C1.73478 2.5 1.48043 2.60536 1.29289 2.79289C1.10536 2.98043 1 3.23478 1 3.5V13C1 13.2652 1.10536 13.5196 1.29289 13.7071C1.48043 13.8946 1.73478 14 2 14H13C13.2652 14 13.5196 13.8946 13.7071 13.7071C13.8946 13.5196 14 13.2652 14 13V3.5C14 3.23478 13.8946 2.98043 13.7071 2.79289C13.5196 2.60536 13.2652 2.5 13 2.5H11" stroke="#858585" stroke-linecap="round" stroke-linejoin="round"/>
<path d="M4 1V4" stroke="#858585" stroke-linecap="round" stroke-linejoin="round"/>
<path d="M11 1V4" stroke="#858585" stroke-linecap="round" stroke-linejoin="round"/>
<path d="M4 2.5H9" stroke="#858585" stroke-linecap="round" stroke-linejoin="round"/>
<path d="M7.74921 5.15241L8.58582 6.83537C8.60453 6.87793 8.6342 6.91477 8.6718 6.94211C8.7094 6.96946 8.75359 6.98634 8.79984 6.99102L10.6579 7.27313C10.711 7.28004 10.7611 7.30194 10.8022 7.33625C10.8434 7.37057 10.8739 7.41588 10.8902 7.4669C10.9065 7.51792 10.908 7.57254 10.8944 7.62436C10.8809 7.67618 10.8528 7.72307 10.8136 7.75953L9.4419 9.0631C9.42144 9.10211 9.41076 9.14551 9.41076 9.18956C9.41076 9.23362 9.42144 9.27701 9.4419 9.31603L9.70455 11.1644C9.71576 11.2178 9.71123 11.2733 9.6915 11.3242C9.67178 11.3751 9.63771 11.4192 9.59343 11.4511C9.54915 11.483 9.49656 11.5014 9.44203 11.5041C9.38751 11.5067 9.33339 11.4934 9.28625 11.4659L7.63247 10.5904C7.58967 10.5711 7.54325 10.5611 7.49628 10.5611C7.44931 10.5611 7.40289 10.5711 7.36009 10.5904L5.70631 11.4659C5.65917 11.4934 5.60505 11.5067 5.55053 11.5041C5.496 11.5014 5.44341 11.483 5.39913 11.4511C5.35485 11.4192 5.32078 11.3751 5.30106 11.3242C5.28133 11.2733 5.2768 11.2178 5.28801 11.1644L5.5993 9.31603C5.61269 9.27313 5.61525 9.22758 5.60677 9.18345C5.59828 9.13932 5.57901 9.09797 5.55066 9.0631L4.179 7.74981C4.14262 7.71295 4.11708 7.66679 4.10519 7.61639C4.0933 7.56598 4.09552 7.51328 4.11159 7.46404C4.12767 7.41481 4.15698 7.37096 4.19633 7.33728C4.23568 7.30361 4.28353 7.28141 4.33465 7.27313L6.19272 7.00074C6.23897 6.99606 6.28316 6.97919 6.32076 6.95184C6.35836 6.9245 6.38803 6.88766 6.40673 6.84509L7.24335 5.16214C7.26574 5.1145 7.301 5.07407 7.34517 5.04542C7.38933 5.01678 7.44063 5.00106 7.49326 5.00005C7.54589 4.99904 7.59775 5.01277 7.64298 5.0397C7.68821 5.06662 7.72501 5.10566 7.74921 5.15241Z" stroke="#858585" stroke-linecap="round" stroke-linejoin="round"/>
</svg>
