<svg width="14" height="4" viewBox="0 0 14 4" fill="none" xmlns="http://www.w3.org/2000/svg">
<path d="M2 1C1.44772 1 1 1.44772 1 2C1 2.55228 1.44772 3 2 3C2.55228 3 3 2.55228 3 2C3 1.44772 2.55228 1 2 1Z" stroke="#6D6D6D" stroke-linecap="round" stroke-linejoin="round"/>
<path d="M7 1C6.44772 1 6 1.44772 6 2C6 2.55228 6.44772 3 7 3C7.55228 3 8 2.55228 8 2C8 1.44772 7.55228 1 7 1Z" stroke="#6D6D6D" stroke-linecap="round" stroke-linejoin="round"/>
<path d="M12 1C11.4477 1 11 1.4478 11 2C11 2.5522 11.4477 3 12 3C12.5523 3 13 2.5522 13 2C13 1.4478 12.5523 1 12 1Z" stroke="#6D6D6D" stroke-linecap="round" stroke-linejoin="round"/>
</svg>
