<svg width="17" height="17" viewBox="0 0 17 17" fill="none" xmlns="http://www.w3.org/2000/svg">
<path d="M6.19399 14.5462L1 16L2.45432 10.8081L11.9651 1.34714C12.0725 1.23725 12.201 1.14993 12.3426 1.09032C12.4844 1.03071 12.6366 1 12.7903 1C12.9441 1 13.0963 1.03071 13.2381 1.09032C13.3797 1.14993 13.5082 1.23725 13.6156 1.34714L15.6586 3.40085C15.7667 3.50811 15.8526 3.63572 15.9112 3.77631C15.9699 3.91691 16 4.06772 16 4.22003C16 4.37234 15.9699 4.52315 15.9112 4.66374C15.8526 4.80434 15.7667 4.93195 15.6586 5.03921L6.19399 14.5462Z" stroke="black" stroke-opacity="0.6" stroke-width="2" stroke-linecap="round" stroke-linejoin="round"/>
</svg>
