<svg width="20" height="20" viewBox="0 0 20 20" fill="none" xmlns="http://www.w3.org/2000/svg">
<g clip-path="url(#clip0_412_263)">
<path d="M2.14342 19.2857H17.8577C18.6467 19.2857 19.2863 18.6462 19.2863 17.8572V2.14287C19.2863 1.35389 18.6467 0.714294 17.8577 0.714294H2.14342C1.35444 0.714294 0.714844 1.35389 0.714844 2.14287V17.8572C0.714844 18.6462 1.35444 19.2857 2.14342 19.2857Z" stroke="black" stroke-opacity="0.8" stroke-linecap="round" stroke-linejoin="round"/>
<path d="M2.5 19.2857L12.9286 9.4571C13.0569 9.3502 13.2187 9.29166 13.3857 9.29166C13.5527 9.29166 13.7145 9.3502 13.8428 9.4571L19.2857 13.3571" stroke="black" stroke-opacity="0.8" stroke-linecap="round" stroke-linejoin="round"/>
<path d="M6.42997 8.57145C7.61344 8.57145 8.57282 7.61206 8.57282 6.42859C8.57282 5.24512 7.61344 4.28574 6.42997 4.28574C5.2465 4.28574 4.28711 5.24512 4.28711 6.42859C4.28711 7.61206 5.2465 8.57145 6.42997 8.57145Z" stroke="black" stroke-opacity="0.8" stroke-linecap="round" stroke-linejoin="round"/>
</g>
<defs>
<clipPath id="clip0_412_263">
<rect width="20" height="20" fill="white"/>
</clipPath>
</defs>
</svg>
