<svg width="12" height="12" viewBox="0 0 12 12" fill="none" xmlns="http://www.w3.org/2000/svg">
<path d="M1 3.30859H11" stroke="black" stroke-opacity="0.6" stroke-linecap="round" stroke-linejoin="round"/>
<path d="M2.25 3.30859H9.75V10.2315C9.75 10.4355 9.66217 10.6312 9.50592 10.7754C9.34967 10.9197 9.13767 11.0007 8.91667 11.0007H3.08333C2.86232 11.0007 2.65036 10.9197 2.49408 10.7754C2.3378 10.6312 2.25 10.4355 2.25 10.2315V3.30859Z" stroke="black" stroke-opacity="0.6" stroke-linecap="round" stroke-linejoin="round"/>
<path d="M3.91602 3.30764V2.92303C3.91602 2.41301 4.13551 1.92388 4.52621 1.56324C4.91691 1.2026 5.44682 1 5.99935 1C6.55188 1 7.08179 1.2026 7.47249 1.56324C7.86319 1.92388 8.08268 2.41301 8.08268 2.92303V3.30764" stroke="black" stroke-opacity="0.6" stroke-linecap="round" stroke-linejoin="round"/>
<path d="M4.75 5.61719V8.69523" stroke="black" stroke-opacity="0.6" stroke-linecap="round" stroke-linejoin="round"/>
<path d="M7.25 5.61719V8.69523" stroke="black" stroke-opacity="0.6" stroke-linecap="round" stroke-linejoin="round"/>
</svg>
