<svg width="31" height="32" viewBox="0 0 31 32" fill="none" xmlns="http://www.w3.org/2000/svg">
    <rect x="4" y="4" width="24" height="24" rx="12" fill="#32A9EB" fill-opacity="0.77"/>
    <path d="M12.539 20.165L15.663 17.03C16.2203 16.4653 16.62 15.9923 16.862 15.611C17.104 15.2223 17.225 14.8703 17.225 14.555C17.225 14.0417 17.0637 13.642 16.741 13.356C16.4183 13.0627 15.9783 12.916 15.421 12.916C15.0397 12.916 14.7097 13.004 14.431 13.18C14.1597 13.3487 13.9507 13.576 13.804 13.862C13.6647 14.148 13.595 14.4597 13.595 14.797H12.44C12.44 14.2617 12.561 13.774 12.803 13.334C13.0523 12.894 13.4043 12.5457 13.859 12.289C14.3137 12.025 14.838 11.893 15.432 11.893C16.0187 11.893 16.532 12.003 16.972 12.223C17.4193 12.443 17.764 12.7547 18.006 13.158C18.248 13.5613 18.369 14.0233 18.369 14.544C18.369 15.006 18.2297 15.4643 17.951 15.919C17.6723 16.3737 17.192 16.9493 16.51 17.646L14.2 19.912H18.666V20.913H12.539V20.165Z" fill="white"/>
</svg>
