<svg width="25" height="24" viewBox="0 0 25 24" fill="none" xmlns="http://www.w3.org/2000/svg">
<g id="&#240;&#159;&#166;&#134; icon &#34;plus square outline&#34;">
<g id="Group">
<path id="Vector" d="M18.75 3.47656H6.25C5.4212 3.47656 4.62634 3.77587 4.04029 4.30865C3.45424 4.84142 3.125 5.56402 3.125 6.31747V17.6811C3.125 18.4346 3.45424 19.1572 4.04029 19.6899C4.62634 20.2227 5.4212 20.522 6.25 20.522H18.75C19.5788 20.522 20.3737 20.2227 20.9597 19.6899C21.5458 19.1572 21.875 18.4346 21.875 17.6811V6.31747C21.875 5.56402 21.5458 4.84142 20.9597 4.30865C20.3737 3.77587 19.5788 3.47656 18.75 3.47656ZM19.7917 17.6811C19.7917 17.9323 19.6819 18.1731 19.4866 18.3507C19.2912 18.5283 19.0263 18.6281 18.75 18.6281H6.25C5.97373 18.6281 5.70878 18.5283 5.51343 18.3507C5.31808 18.1731 5.20833 17.9323 5.20833 17.6811V6.31747C5.20833 6.06632 5.31808 5.82545 5.51343 5.64786C5.70878 5.47027 5.97373 5.3705 6.25 5.3705H18.75C19.0263 5.3705 19.2912 5.47027 19.4866 5.64786C19.6819 5.82545 19.7917 6.06632 19.7917 6.31747V17.6811Z" fill="#008FD5" fill-opacity="0.7"/>
<path id="Vector_2" d="M15.6257 11.0518H13.5423V9.15791C13.5423 8.90676 13.4326 8.66589 13.2372 8.4883C13.0419 8.31071 12.7769 8.21094 12.5007 8.21094C12.2244 8.21094 11.9594 8.31071 11.7641 8.4883C11.5687 8.66589 11.459 8.90676 11.459 9.15791V11.0518H9.37565C9.09938 11.0518 8.83443 11.1516 8.63908 11.3292C8.44373 11.5068 8.33398 11.7477 8.33398 11.9988C8.33398 12.25 8.44373 12.4908 8.63908 12.6684C8.83443 12.846 9.09938 12.9458 9.37565 12.9458H11.459V14.8397C11.459 15.0909 11.5687 15.3317 11.7641 15.5093C11.9594 15.6869 12.2244 15.7867 12.5007 15.7867C12.7769 15.7867 13.0419 15.6869 13.2372 15.5093C13.4326 15.3317 13.5423 15.0909 13.5423 14.8397V12.9458H15.6257C15.9019 12.9458 16.1669 12.846 16.3622 12.6684C16.5576 12.4908 16.6673 12.25 16.6673 11.9988C16.6673 11.7477 16.5576 11.5068 16.3622 11.3292C16.1669 11.1516 15.9019 11.0518 15.6257 11.0518Z" fill="#008FD5" fill-opacity="0.7"/>
</g>
</g>
</svg>
