<svg width="45" height="45" viewBox="0 0 45 45" fill="none" xmlns="http://www.w3.org/2000/svg">
<circle cx="22.5" cy="22.5" r="22.5" fill="#2A72FF" fill-opacity="0.1"/>
<path d="M33.6667 20.3333H23.6667V10.3333C23.6667 9.89131 23.4911 9.46739 23.1785 9.15483C22.866 8.84227 22.442 8.66667 22 8.66667C21.558 8.66667 21.1341 8.84227 20.8215 9.15483C20.5089 9.46739 20.3333 9.89131 20.3333 10.3333V20.3333H10.3333C9.89131 20.3333 9.46739 20.5089 9.15483 20.8215C8.84227 21.1341 8.66667 21.558 8.66667 22C8.66667 22.442 8.84227 22.866 9.15483 23.1785C9.46739 23.4911 9.89131 23.6667 10.3333 23.6667H20.3333V33.6667C20.3333 34.1087 20.5089 34.5326 20.8215 34.8452C21.1341 35.1577 21.558 35.3333 22 35.3333C22.442 35.3333 22.866 35.1577 23.1785 34.8452C23.4911 34.5326 23.6667 34.1087 23.6667 33.6667V23.6667H33.6667C34.1087 23.6667 34.5326 23.4911 34.8452 23.1785C35.1577 22.866 35.3333 22.442 35.3333 22C35.3333 21.558 35.1577 21.1341 34.8452 20.8215C34.5326 20.5089 34.1087 20.3333 33.6667 20.3333Z" fill="#2A72FF"/>
</svg>
