<svg width="59" height="55" viewBox="0 0 59 55" fill="none" xmlns="http://www.w3.org/2000/svg">
<path d="M41.666 25.3337H31.666V15.3337C31.666 14.8916 31.4904 14.4677 31.1779 14.1551C30.8653 13.8426 30.4414 13.667 29.9993 13.667C29.5573 13.667 29.1334 13.8426 28.8208 14.1551C28.5083 14.4677 28.3327 14.8916 28.3327 15.3337V25.3337H18.3327C17.8907 25.3337 17.4667 25.5093 17.1542 25.8218C16.8416 26.1344 16.666 26.5583 16.666 27.0003C16.666 27.4424 16.8416 27.8663 17.1542 28.1788C17.4667 28.4914 17.8907 28.667 18.3327 28.667H28.3327V38.667C28.3327 39.109 28.5083 39.5329 28.8208 39.8455C29.1334 40.1581 29.5573 40.3337 29.9993 40.3337C30.4414 40.3337 30.8653 40.1581 31.1779 39.8455C31.4904 39.5329 31.666 39.109 31.666 38.667V28.667H41.666C42.108 28.667 42.532 28.4914 42.8445 28.1788C43.1571 27.8663 43.3327 27.4424 43.3327 27.0003C43.3327 26.5583 43.1571 26.1344 42.8445 25.8218C42.532 25.5093 42.108 25.3337 41.666 25.3337Z" fill="#4C4CFF"/>
<circle cx="29.5" cy="27.5" r="22.5" fill="#4C4CFF" fill-opacity="0.1"/>
</svg>
