<svg width="15" height="15" viewBox="0 0 15 15" fill="none" xmlns="http://www.w3.org/2000/svg">
<path d="M14 8.5H10.5C10.2348 8.5 9.98043 8.60536 9.79289 8.79289C9.60536 8.98043 9.5 9.23478 9.5 9.5C9.5 10.0304 9.28929 10.5391 8.91421 10.9142C8.53914 11.2893 8.03043 11.5 7.5 11.5C6.96957 11.5 6.46086 11.2893 6.08579 10.9142C5.71071 10.5391 5.5 10.0304 5.5 9.5C5.5 9.23478 5.39464 8.98043 5.20711 8.79289C5.01957 8.60536 4.76522 8.5 4.5 8.5H1V13C1 13.2652 1.10536 13.5196 1.29289 13.7071C1.48043 13.8946 1.73478 14 2 14H13C13.2652 14 13.5196 13.8946 13.7071 13.7071C13.8946 13.5196 14 13.2652 14 13V8.5Z" stroke="black" stroke-opacity="0.3" stroke-width="1.3" stroke-linecap="round" stroke-linejoin="round"/>
<path d="M5 4.5L7.5 7L10 4.5" stroke="black" stroke-opacity="0.3" stroke-width="1.3" stroke-linecap="round" stroke-linejoin="round"/>
<path d="M7.5 1V7" stroke="black" stroke-opacity="0.3" stroke-width="1.3" stroke-linecap="round" stroke-linejoin="round"/>
</svg>
