<svg width="65" height="34" viewBox="0 0 65 34" fill="none" xmlns="http://www.w3.org/2000/svg">
<rect x="3" y="3" width="59" height="27" rx="10" fill="#EFFBFF"/>
<path d="M22.148 14.666C21.708 15.2747 21.114 15.7587 20.366 16.118C19.6253 16.4773 18.793 16.6863 17.869 16.745V15.744C18.529 15.6927 19.1303 15.5423 19.673 15.293C20.223 15.0363 20.6777 14.699 21.037 14.281C21.3963 13.8557 21.6273 13.3717 21.73 12.829H18.111V11.828H21.708V10.629H22.83V11.828H26.471V12.829H22.885C22.8337 13.1737 22.7457 13.5073 22.621 13.83L26.724 15.898L26.251 16.789L22.148 14.666ZM26.988 18.681V19.693H17.605V18.681H21.741V16.525H22.83V18.681H26.988ZM35.8641 10.75H36.9531V20.144H35.8641V10.75ZM28.6261 18.527C29.4694 18.527 30.1991 18.318 30.8151 17.9C31.4384 17.4747 31.9114 16.877 32.2341 16.107C32.5641 15.3297 32.7291 14.4203 32.7291 13.379V12.092H28.6261V11.091H33.8401V13.357C33.8401 14.6037 33.6274 15.6963 33.2021 16.635C32.7841 17.5663 32.1791 18.2887 31.3871 18.802C30.6024 19.308 29.6821 19.561 28.6261 19.561V18.527ZM45.0921 12.796H38.7231V11.839H41.3521V10.651H42.4631V11.839H45.0921V12.796ZM48.5901 15.513H47.2921V20.144H46.2031V10.75H47.2921V14.468H48.5901V15.513ZM42.4521 18.615C43.8528 18.6003 44.8428 18.461 45.4221 18.197V19.187C45.1288 19.319 44.7108 19.418 44.1681 19.484C43.6328 19.55 43.0278 19.583 42.3531 19.583H38.7671V18.615H41.3631V17.218C40.6958 17.1447 40.1678 16.943 39.7791 16.613C39.3978 16.2757 39.2071 15.843 39.2071 15.315C39.2071 14.7137 39.4528 14.2407 39.9441 13.896C40.4354 13.544 41.0954 13.368 41.9241 13.368C42.7528 13.368 43.4128 13.544 43.9041 13.896C44.3954 14.2407 44.6411 14.7137 44.6411 15.315C44.6411 15.843 44.4468 16.2757 44.0581 16.613C43.6694 16.9503 43.1341 17.1557 42.4521 17.229V18.615ZM40.2411 15.315C40.2411 15.623 40.3878 15.876 40.6811 16.074C40.9744 16.2647 41.3888 16.36 41.9241 16.36C42.4594 16.36 42.8738 16.2647 43.1671 16.074C43.4604 15.876 43.6071 15.623 43.6071 15.315C43.6071 15.007 43.4604 14.754 43.1671 14.556C42.8738 14.358 42.4594 14.259 41.9241 14.259C41.3888 14.259 40.9744 14.358 40.6811 14.556C40.3878 14.754 40.2411 15.007 40.2411 15.315Z" fill="#008FD5"/>
</svg>
