<svg width="19" height="19" viewBox="0 0 19 19" fill="none" xmlns="http://www.w3.org/2000/svg">
<path d="M18.4483 16.4861L15.0912 13.2374C16.1744 11.8981 16.7621 10.2442 16.7599 8.54155C16.7599 7.02522 16.2966 5.54295 15.4287 4.28218C14.5607 3.0214 13.3271 2.03874 11.8837 1.45847C10.4404 0.8782 8.85215 0.726374 7.31989 1.02219C5.78764 1.31801 4.38017 2.04819 3.27548 3.1204C2.17078 4.1926 1.41848 5.55867 1.11369 7.04586C0.80891 8.53304 0.965337 10.0746 1.56319 11.4755C2.16105 12.8764 3.17348 14.0737 4.47246 14.9161C5.77145 15.7586 7.29864 16.2082 8.86091 16.2082C10.6151 16.2103 12.3191 15.6399 13.699 14.5886L17.0462 17.847C17.138 17.9368 17.2472 18.0081 17.3676 18.0567C17.4879 18.1054 17.6169 18.1304 17.7473 18.1304C17.8776 18.1304 18.0067 18.1054 18.127 18.0567C18.2473 18.0081 18.3565 17.9368 18.4483 17.847C18.5409 17.7579 18.6143 17.6519 18.6644 17.5351C18.7146 17.4183 18.7404 17.2931 18.7404 17.1665C18.7404 17.04 18.7146 16.9148 18.6644 16.798C18.6143 16.6812 18.5409 16.5752 18.4483 16.4861ZM2.93667 8.54155C2.93667 7.40431 3.28412 6.2926 3.93508 5.34702C4.58604 4.40144 5.51128 3.66444 6.5938 3.22924C7.67631 2.79404 8.86748 2.68017 10.0167 2.90203C11.1659 3.1239 12.2215 3.67153 13.05 4.47568C13.8785 5.27984 14.4427 6.30439 14.6713 7.41978C14.8999 8.53517 14.7826 9.6913 14.3342 10.742C13.8858 11.7927 13.1265 12.6907 12.1522 13.3225C11.178 13.9543 10.0326 14.2915 8.86091 14.2915C7.2897 14.2915 5.78285 13.6857 4.67184 12.6074C3.56082 11.5291 2.93667 10.0665 2.93667 8.54155Z" fill="black" fill-opacity="0.5"/>
</svg>
