<svg width="12" height="12" viewBox="0 0 12 12" fill="none" xmlns="http://www.w3.org/2000/svg">
<path d="M4.46211 4.84615C5.52418 4.84615 6.38516 3.98516 6.38516 2.92308C6.38516 1.86099 5.52418 1 4.46211 1C3.40004 1 2.53906 1.86099 2.53906 2.92308C2.53906 3.98516 3.40004 4.84615 4.46211 4.84615Z" stroke="black" stroke-opacity="0.6" stroke-linecap="round" stroke-linejoin="round"/>
<path d="M4.46149 10.2309H1V9.81386C1.00612 9.22755 1.16075 8.65232 1.44943 8.14199C1.73812 7.63164 2.15144 7.20278 2.6508 6.89548C3.15016 6.58817 3.71926 6.41246 4.30493 6.38473C4.35715 6.38226 4.40935 6.38097 4.46149 6.38086C4.51362 6.38097 4.56583 6.38226 4.61805 6.38473C5.20372 6.41246 5.77282 6.58817 6.27218 6.89548C6.55933 7.07219 6.81803 7.28909 7.04094 7.53857" stroke="black" stroke-opacity="0.6" stroke-linecap="round" stroke-linejoin="round"/>
<path d="M10.9981 7.1543L7.92125 11.0005L6.38281 9.8466" stroke="black" stroke-opacity="0.6" stroke-linecap="round" stroke-linejoin="round"/>
</svg>
