<svg width="15" height="15" viewBox="0 0 15 15" fill="none" xmlns="http://www.w3.org/2000/svg">
<path d="M8 1H3C2.73478 1 2.48043 1.10536 2.29289 1.29289C2.10536 1.48043 2 1.73478 2 2V11L1 14L5 13H13C13.2652 13 13.5196 12.8946 13.7071 12.7071C13.8946 12.5196 14 12.2652 14 12V7" stroke="black" stroke-opacity="0.3" stroke-width="1.3" stroke-linecap="round" stroke-linejoin="round"/>
<path d="M8.86328 8.63666L5.86328 9.17665L6.36328 6.13666L11.0933 1.42666C11.1862 1.33293 11.2968 1.25853 11.4187 1.20777C11.5405 1.157 11.6712 1.13086 11.8033 1.13086C11.9353 1.13086 12.066 1.157 12.1878 1.20777C12.3097 1.25853 12.4203 1.33293 12.5133 1.42666L13.5733 2.48666C13.667 2.57962 13.7414 2.69023 13.7922 2.81209C13.8429 2.93394 13.8691 3.06465 13.8691 3.19666C13.8691 3.32867 13.8429 3.45938 13.7922 3.58124C13.7414 3.7031 13.667 3.8137 13.5733 3.90666L8.86328 8.63666Z" stroke="black" stroke-opacity="0.3" stroke-width="1.3" stroke-linecap="round" stroke-linejoin="round"/>
</svg>
