<svg width="100" height="62" viewBox="0 0 100 62" fill="none" xmlns="http://www.w3.org/2000/svg">
<rect x="6.5" y="15.5" width="87" height="32" rx="9.5" fill="white" stroke="#DBDBDF"/>
<path d="M50.026 25.5V31.632H48.64V29.182H46.204C46.0547 29.9007 45.658 30.4747 45.014 30.904C44.37 31.3333 43.558 31.548 42.578 31.548C41.8313 31.548 41.178 31.4267 40.618 31.184C40.0673 30.932 39.638 30.582 39.33 30.134C39.0313 29.686 38.882 29.1727 38.882 28.594C38.882 28.0153 39.0313 27.502 39.33 27.054C39.638 26.606 40.0673 26.2607 40.618 26.018C41.178 25.766 41.8313 25.64 42.578 25.64C43.53 25.64 44.3233 25.8453 44.958 26.256C45.602 26.6573 46.008 27.2033 46.176 27.894H48.64V25.5H50.026ZM42.578 30.4C43.2687 30.4 43.824 30.2367 44.244 29.91C44.664 29.5833 44.874 29.1447 44.874 28.594C44.874 28.0433 44.664 27.6047 44.244 27.278C43.824 26.9513 43.2687 26.788 42.578 26.788C41.8873 26.788 41.3273 26.9513 40.898 27.278C40.478 27.6047 40.268 28.0433 40.268 28.594C40.268 29.1447 40.478 29.5833 40.898 29.91C41.3273 30.2367 41.8873 30.4 42.578 30.4ZM48.654 32.29H50.026V37.302H39.988V32.29H41.346V33.55H48.654V32.29ZM48.654 36.168V34.656H41.346V36.168H48.654ZM64.1788 35.608V36.882H52.2368V35.608H57.4728V33.354H53.0348V29.042H62.0228V27.166H53.0348V25.934H63.3948V30.232H54.4208V32.122H63.5768V33.354H58.8868V35.608H64.1788ZM66.4876 25.934H76.8616V27.222H67.9016V31.702H77.0016V32.99H66.4876V25.934ZM65.7036 35.58H77.6456V36.882H65.7036V35.58Z" fill="black" fill-opacity="0.7"/>
<path d="M18.832 25.7454H30.4987C30.9589 25.7454 31.332 25.2954 31.332 24.7404C31.332 24.1853 30.9589 23.7353 30.4987 23.7353H18.832C18.3718 23.7353 17.9987 24.1853 17.9987 24.7404C17.9987 25.2954 18.3718 25.7454 18.832 25.7454Z" fill="black" fill-opacity="0.8"/>
<path d="M31.332 26.7505V24.7404C31.332 24.1853 30.9589 23.7354 30.4987 23.7354C30.0385 23.7354 29.6654 24.1853 29.6654 24.7404V26.7505C29.6654 27.3056 30.0385 27.7555 30.4987 27.7555C30.9589 27.7555 31.332 27.3056 31.332 26.7505Z" fill="black" fill-opacity="0.8"/>
<path d="M19.6641 26.7505V24.7404C19.6641 24.1853 19.291 23.7354 18.8307 23.7354C18.3705 23.7354 17.9974 24.1853 17.9974 24.7404V26.7505C17.9974 27.3056 18.3705 27.7555 18.8307 27.7555C19.291 27.7555 19.6641 27.3056 19.6641 26.7505Z" fill="black" fill-opacity="0.8"/>
<path d="M21.3314 33.7858C21.202 33.7858 21.0744 33.7495 20.9587 33.6797C20.843 33.6099 20.7423 33.5086 20.6647 33.3838C20.5991 33.2782 20.5513 33.158 20.5241 33.0302C20.497 32.9023 20.4909 32.7693 20.5064 32.6386C20.5219 32.5079 20.5586 32.3822 20.6143 32.2687C20.6701 32.1551 20.7438 32.0559 20.8314 31.9767L24.1647 28.9616C24.3074 28.8358 24.4796 28.768 24.6564 28.768C24.8331 28.768 25.0053 28.8358 25.148 28.9616L28.4814 31.7958C28.661 31.9495 28.7829 32.1827 28.8204 32.4445C28.8579 32.7063 28.8079 32.9753 28.6814 33.1928C28.6182 33.3015 28.5378 33.394 28.4449 33.4651C28.3519 33.5361 28.2482 33.5842 28.1397 33.6066C28.0313 33.6291 27.9202 33.6254 27.8129 33.5957C27.7056 33.5661 27.6043 33.5111 27.5147 33.434L24.6647 31.0119L21.8314 33.5848C21.6871 33.7152 21.5117 33.7858 21.3314 33.7858Z" fill="black" fill-opacity="0.8"/>
<path d="M24.6654 40.8212C24.4444 40.8212 24.2324 40.7153 24.0761 40.5268C23.9198 40.3383 23.832 40.0827 23.832 39.8161V31.7758C23.832 31.5092 23.9198 31.2536 24.0761 31.0651C24.2324 30.8766 24.4444 30.7707 24.6654 30.7707C24.8864 30.7707 25.0983 30.8766 25.2546 31.0651C25.4109 31.2536 25.4987 31.5092 25.4987 31.7758V39.8161C25.4987 40.0827 25.4109 40.3383 25.2546 40.5268C25.0983 40.7153 24.8864 40.8212 24.6654 40.8212Z" fill="black" fill-opacity="0.8"/>
</svg>
