<svg width="21" height="21" viewBox="0 0 21 21" fill="none" xmlns="http://www.w3.org/2000/svg">
<path d="M4.16992 5.99609H15.8366C16.2968 5.99609 16.6699 5.623 16.6699 5.16276C16.6699 4.70252 16.2968 4.32943 15.8366 4.32943H4.16992C3.70968 4.32943 3.33659 4.70252 3.33659 5.16276C3.33659 5.623 3.70968 5.99609 4.16992 5.99609Z" fill="black" fill-opacity="0.8"/>
<path d="M16.6699 6.8291V5.16243C16.6699 4.7022 16.2968 4.3291 15.8366 4.3291C15.3764 4.3291 15.0033 4.7022 15.0033 5.16243V6.8291C15.0033 7.28934 15.3764 7.66244 15.8366 7.66244C16.2968 7.66244 16.6699 7.28934 16.6699 6.8291Z" fill="black" fill-opacity="0.8"/>
<path d="M5.00195 6.8291V5.16243C5.00195 4.7022 4.62886 4.3291 4.16862 4.3291C3.70838 4.3291 3.33529 4.7022 3.33529 5.16243V6.8291C3.33529 7.28934 3.70838 7.66244 4.16862 7.66244C4.62886 7.66244 5.00195 7.28934 5.00195 6.8291Z" fill="black" fill-opacity="0.8"/>
<path d="M6.66927 12.6625C6.5399 12.6625 6.41231 12.6323 6.29659 12.5745C6.18088 12.5166 6.08023 12.4326 6.0026 12.3291C5.93694 12.2416 5.88917 12.1419 5.86201 12.0359C5.83485 11.9299 5.82884 11.8196 5.84431 11.7113C5.85979 11.6029 5.89645 11.4987 5.95221 11.4045C6.00797 11.3104 6.08172 11.2281 6.16927 11.1625L9.5026 8.66245C9.64532 8.55816 9.81751 8.50195 9.99427 8.50195C10.171 8.50195 10.3432 8.55816 10.4859 8.66245L13.8193 11.0125C13.9989 11.1399 14.1208 11.3333 14.1583 11.5503C14.1958 11.7674 14.1458 11.9905 14.0193 12.1708C13.9561 12.2609 13.8757 12.3376 13.7828 12.3965C13.6898 12.4554 13.5861 12.4953 13.4776 12.5139C13.3691 12.5325 13.2581 12.5294 13.1508 12.5049C13.0435 12.4803 12.9422 12.4347 12.8526 12.3708L10.0026 10.3625L7.16927 12.4958C7.02502 12.604 6.84958 12.6625 6.66927 12.6625Z" fill="black" fill-opacity="0.8"/>
<path d="M10.0033 18.4954C9.78224 18.4954 9.57028 18.4076 9.414 18.2514C9.25772 18.0951 9.16992 17.8831 9.16992 17.6621V10.9954C9.16992 10.7744 9.25772 10.5625 9.414 10.4062C9.57028 10.2499 9.78224 10.1621 10.0033 10.1621C10.2243 10.1621 10.4362 10.2499 10.5925 10.4062C10.7488 10.5625 10.8366 10.7744 10.8366 10.9954V17.6621C10.8366 17.8831 10.7488 18.0951 10.5925 18.2514C10.4362 18.4076 10.2243 18.4954 10.0033 18.4954Z" fill="black" fill-opacity="0.8"/>
</svg>
